<?xml version="1.0" encoding="UTF-8"?>
<svg id="Camada_2" data-name="Camada 2" xmlns="http://www.w3.org/2000/svg" viewBox="0 0 326.46 71.43">
  <defs>
    <style>
      .cls-1 {
        fill: #fff;
        fill-rule: evenodd;
      }
    </style>
  </defs>
  <g id="Marca_MAK" data-name="Marca MAK">
    <g id="Makplan_Logo_card" data-name="Makplan Logo card">
      <polygon class="cls-1" points="292.57 17.05 315.82 45.3 315.82 26.48 315.82 25.37 315.72 24.36 315.62 23.46 315.52 22.6 315.31 21.84 315.16 21.19 314.91 20.63 314.66 20.18 314.2 19.67 313.65 19.22 313.04 18.87 312.34 18.56 311.58 18.36 310.72 18.16 309.82 18.11 308.81 18.06 308.81 17.05 326.46 17.05 326.46 18.06 325.6 18.16 324.85 18.31 324.14 18.41 323.54 18.56 323.03 18.66 322.58 18.82 322.17 18.97 321.92 19.12 321.62 19.32 321.32 19.57 321.06 19.82 320.86 20.08 320.66 20.38 320.51 20.68 320.31 20.93 320.16 21.24 319.96 21.69 319.8 22.2 319.65 22.75 319.55 23.35 319.5 24.06 319.45 24.82 319.4 25.62 319.4 26.48 319.4 65.37 317.84 65.37 285.35 25.98 285.35 56.04 285.4 57.05 285.5 57.96 285.65 58.82 285.86 59.57 286.11 60.28 286.41 60.89 286.76 61.39 287.17 61.84 287.62 62.15 288.08 62.4 288.58 62.65 289.14 62.85 289.64 63.05 290.19 63.21 290.7 63.25 291.25 63.31 292.31 63.31 292.31 64.32 274.76 64.32 274.76 63.31 275.72 63.25 276.63 63.21 277.43 63.05 278.14 62.85 278.79 62.6 279.35 62.3 279.8 61.94 280.21 61.59 280.61 61.19 280.91 60.63 281.22 60.08 281.42 59.37 281.62 58.67 281.72 57.81 281.82 56.95 281.82 56.04 281.82 21.74 281.32 21.14 280.91 20.73 280.51 20.33 280.16 19.98 279.8 19.67 279.45 19.37 279.15 19.12 278.84 18.87 278.59 18.71 278.24 18.56 277.89 18.46 277.48 18.36 277.03 18.26 276.58 18.16 276.07 18.11 275.57 18.06 274.96 18.06 274.96 17.05 292.57 17.05"/>
      <polygon class="cls-1" points="230.47 46.61 228.91 63.96 190.32 63.96 190.32 62.95 191.68 62.95 192.13 62.95 192.59 62.85 192.99 62.8 193.4 62.65 193.8 62.55 194.15 62.4 194.51 62.2 194.81 62.05 194.96 61.94 195.16 61.84 195.31 61.64 195.51 61.44 195.67 61.24 195.82 60.98 195.92 60.73 196.02 60.43 196.07 60.13 196.17 59.72 196.22 59.27 196.32 58.71 196.37 58.11 196.37 57.4 196.42 56.6 196.42 55.69 196.42 25.07 196.42 24.11 196.37 23.31 196.37 22.55 196.32 21.84 196.22 21.29 196.17 20.78 196.07 20.43 196.02 20.13 195.92 19.92 195.82 19.77 195.67 19.57 195.46 19.32 195.26 19.12 195.06 18.87 194.86 18.62 194.61 18.36 194.3 18.21 194 18.11 193.65 18.01 193.29 17.91 192.94 17.81 192.54 17.76 192.13 17.71 191.68 17.71 190.32 17.71 190.32 16.7 212.87 16.7 212.87 17.71 211.1 17.71 210.65 17.71 210.24 17.76 209.84 17.81 209.49 17.91 209.13 18.06 208.83 18.21 208.58 18.36 208.33 18.56 208.07 18.66 207.87 18.82 207.72 19.02 207.57 19.22 207.42 19.47 207.32 19.72 207.22 20.03 207.12 20.33 207.07 20.58 206.97 20.93 206.91 21.39 206.86 21.94 206.76 22.55 206.76 23.31 206.71 24.11 206.71 25.07 206.71 54.38 206.71 55.24 206.76 55.99 206.76 56.65 206.86 57.25 206.91 57.81 206.97 58.26 207.07 58.62 207.12 58.92 207.22 59.17 207.32 59.37 207.47 59.62 207.67 59.82 207.82 60.03 208.07 60.18 208.28 60.33 208.53 60.43 208.78 60.48 209.08 60.53 209.49 60.53 209.94 60.58 210.5 60.58 211.05 60.58 211.76 60.58 212.46 60.58 216.04 60.58 216.85 60.58 217.61 60.53 218.37 60.43 219.12 60.28 219.83 60.08 220.53 59.88 221.19 59.57 221.79 59.22 222.35 58.92 222.91 58.51 223.41 58.06 223.91 57.61 224.37 57.05 224.82 56.5 225.28 55.89 225.73 55.24 225.93 54.88 226.13 54.48 226.33 54.07 226.49 53.67 226.69 53.22 226.89 52.71 227.09 52.26 227.34 51.7 227.55 51.15 227.75 50.59 227.95 49.99 228.15 49.38 228.3 48.73 228.5 48.07 228.71 47.37 228.91 46.61 230.47 46.61"/>
      <polygon class="cls-1" points="31.83 47.42 43.94 17.05 63.15 17.05 63.15 18.06 61.69 18.06 61.19 18.06 60.68 18.11 60.23 18.16 59.77 18.26 59.37 18.41 59.02 18.56 58.66 18.71 58.31 18.92 58.11 19.02 57.91 19.17 57.71 19.37 57.55 19.57 57.4 19.82 57.3 20.08 57.2 20.38 57.1 20.68 56.95 20.93 56.85 21.29 56.8 21.74 56.75 22.3 56.7 22.9 56.7 23.66 56.7 24.47 56.7 25.42 56.7 56.04 56.7 56.95 56.7 57.76 56.7 58.51 56.75 59.17 56.8 59.78 56.85 60.23 56.95 60.63 57.1 60.94 57.3 61.39 57.61 61.79 57.96 62.09 58.51 62.4 58.82 62.65 59.12 62.85 59.42 63 59.82 63.1 60.23 63.21 60.68 63.25 61.19 63.31 61.69 63.31 63.15 63.31 63.15 64.32 39.3 64.32 39.3 63.31 40.76 63.31 41.21 63.31 41.67 63.21 42.07 63.16 42.52 63 42.88 62.9 43.28 62.75 43.58 62.55 43.94 62.4 44.14 62.3 44.34 62.2 44.54 61.99 44.69 61.79 44.89 61.59 45.05 61.34 45.25 61.09 45.4 60.78 45.45 60.48 45.55 60.08 45.6 59.62 45.7 59.07 45.75 58.46 45.75 57.76 45.8 56.95 45.8 56.04 45.8 21.14 28.4 64.32 27.59 64.32 9.84 21.49 9.84 54.88 9.84 55.74 9.84 56.55 9.84 57.2 9.89 57.81 9.89 58.31 9.94 58.71 9.99 59.07 10.04 59.27 10.14 59.72 10.29 60.18 10.44 60.58 10.69 60.94 10.95 61.24 11.2 61.59 11.55 61.89 11.91 62.2 12.26 62.45 12.66 62.65 13.12 62.85 13.62 63 14.23 63.1 14.88 63.21 15.59 63.31 16.34 63.31 16.34 64.32 0 64.32 0 63.31 .4 63.31 .81 63.31 1.21 63.25 1.56 63.21 1.97 63.16 2.32 63.05 2.67 62.95 3.03 62.8 3.33 62.65 3.63 62.55 3.98 62.4 4.29 62.25 4.54 62.05 4.84 61.84 5.05 61.64 5.3 61.39 5.45 61.14 5.6 60.89 5.75 60.63 5.85 60.33 6 60.03 6.15 59.67 6.25 59.32 6.36 58.92 6.46 58.56 6.46 58.46 6.46 58.21 6.46 57.91 6.46 57.45 6.46 56.95 6.46 56.35 6.46 55.69 6.46 54.88 6.46 25.42 6.46 24.47 6.46 23.66 6.46 22.9 6.46 22.2 6.41 21.64 6.36 21.14 6.31 20.78 6.25 20.48 6.1 20.28 5.9 20.13 5.75 19.92 5.6 19.67 5.4 19.47 5.15 19.22 4.89 18.97 4.59 18.71 4.34 18.56 4.04 18.46 3.68 18.36 3.28 18.26 2.83 18.16 2.42 18.11 1.92 18.06 1.46 18.06 0 18.06 0 17.05 19.02 17.05 31.83 47.42"/>
      <path class="cls-1" d="M87.82,46.61l-6.15-14.73-6.15,14.73h12.31ZM89.18,50.14h-15.03l-1.97,4.84-.2.66-.2.56-.2.55-.15.55-.15.45-.05.45-.1.45v.4l.05.51.05.45.15.45.2.35.25.41.25.3.3.25.35.25.25.15.35.15.4.15.51.1.55.1.66.1.71.05.76.1v1.01h-14.88v-1.01l.51-.1.5-.15.5-.25.5-.25.45-.3.46-.35.4-.35.4-.4.4-.56.4-.65.45-.76.45-.91.45-1.01.56-1.16.5-1.26.61-1.36,15.64-37.53h.55l15.64,38.59.6,1.41.5,1.31.56,1.11.45,1.01.45.86.4.76.4.6.4.45.3.2.35.2.35.2.35.15.4.15.45.15.45.1.5.1v1.01h-20.78v-1.01h1.56l.51-.1.5-.05.51-.15.4-.1.4-.15.35-.2.3-.15.15-.15.1-.15.1-.2.1-.2.05-.2.05-.25.05-.2v-1.11l-.05-.2-.05-.15-.05-.15-.05-.15v-.15l-.05-.2-.1-.25-.1-.3-.15-.4-.2-.45-.2-.51-.2-.55-2.37-5.95Z"/>
      <path class="cls-1" d="M169.59,18.77v21.29h1.82l1.11-.05,1.01-.1.96-.2.91-.3.86-.35.76-.45.76-.51.66-.6.3-.35.3-.35.25-.35.25-.45.2-.4.2-.45.15-.51.15-.5.15-.5.1-.55.1-.56.05-.6.1-.61v-.66l.05-.66v-.66l-.05-1.31-.1-1.26-.15-1.11-.25-1.01-.3-.96-.4-.81-.51-.76-.6-.71-.66-.6-.76-.51-.81-.45-.86-.4-.96-.3-1.06-.2-1.11-.1-1.26-.05h-1.36ZM169.59,42.37v14.23l.05.81v.76l.05.66.05.6.05.46.1.4.05.3.15.25.2.25.2.2.2.2.2.25.25.2.25.15.25.2.35.15.4.15.45.1.5.1.61.05.71.05.76.05h.86v1.01h-23.66v-1.01h.76l.71-.05.6-.05.61-.05.5-.1.45-.1.4-.15.35-.15.25-.2.2-.15.25-.2.25-.25.2-.2.2-.2.2-.25.15-.25.05-.3.1-.4.05-.46.1-.6.05-.66v-.76l.05-.81V24.11l-.05-.81v-.76l-.05-.71-.1-.55-.05-.5-.1-.35-.05-.3-.15-.25-.2-.2-.2-.25-.2-.25-.25-.25-.25-.2-.2-.2-.25-.15-.35-.15-.4-.1-.45-.1-.5-.1-.61-.1-.6-.05-.71-.05h-.76v-1.01h21.54l1.21.05,1.11.1,1.16.1,1.06.1,1.01.2,1.01.15.91.25.91.25.86.25.81.3.76.3.71.35.66.4.61.4.6.4.56.45.45.45.5.45.41.51.4.5.35.51.3.56.3.55.25.56.25.6.2.6.15.61.1.6.1.66.05.66v.71l-.05,1.11-.15,1.06-.2,1.06-.35.96-.4.96-.45.91-.6.86-.66.86-.35.4-.4.35-.45.35-.4.35-.45.35-.45.3-.5.3-.51.3-.5.25-.5.25-.56.25-.6.2-.56.25-.6.15-.6.2-.66.15-.4.1-.45.05-.51.1-.56.05-.55.05-.61.1-.66.05-.66.05-.76.1-.76.05-.81.05h-.86l-.86.05-.96.05h-1.97Z"/>
      <path class="cls-1" d="M257.15,46.61l-6.15-14.73-6.1,14.73h12.26ZM258.52,50.14h-14.98l-2.02,4.84-.2.66-.2.56-.15.55-.15.55-.15.45-.05.45-.1.45v.4l.05.51.05.45.15.45.2.35.2.41.3.3.3.25.35.25.25.15.3.15.4.15.5.1.55.1.66.1.7.05.81.1v1.01h-14.88v-1.01l.51-.1.51-.15.5-.25.5-.25.45-.3.45-.35.4-.35.4-.4.4-.56.4-.65.4-.76.45-.91.45-1.01.56-1.16.51-1.26.6-1.36,15.64-37.53h.61l15.64,38.59.61,1.41.5,1.31.55,1.11.45,1.01.45.86.4.76.41.6.4.45.3.2.3.2.35.2.41.15.35.15.45.15.45.1.5.1v1.01h-20.78v-1.01h1.56l.56-.1.5-.05.46-.15.4-.1.4-.15.35-.2.35-.15.15-.15.1-.15.1-.2.1-.2.05-.2v-.25l.05-.2v-1.11l-.05-.2v-.15l-.05-.15-.05-.15v-.15l-.05-.2-.1-.25-.15-.3-.15-.4-.15-.45-.2-.51-.25-.55-2.37-5.95Z"/>
      <polygon class="cls-1" points="138.57 0 93.67 17.45 113.23 65.46 113.5 65.32 113.9 65.07 114.3 64.82 114.71 64.52 115.01 64.21 115.21 63.91 115.31 63.61 122.73 28.8 111.43 22.04 110.72 21.69 109.81 21.39 108.9 21.14 107.95 20.93 107.04 20.78 106.18 20.63 105.53 20.58 105.02 20.53 104.77 20.53 104.42 20.53 104.06 20.53 103.66 20.53 103.21 20.58 102.7 20.68 102.2 20.78 101.64 20.88 101.24 19.88 115.21 14.48 115.51 15.39 114.96 15.64 114.45 15.89 114 16.09 113.65 16.29 113.29 16.5 113.04 16.65 112.89 16.8 112.79 16.9 112.59 17.25 112.49 17.6 112.39 17.96 112.34 18.36 112.34 18.66 112.34 18.97 112.34 19.22 112.34 19.37 112.44 19.62 112.79 19.88 113.29 20.13 113.95 20.43 114.66 20.73 115.41 21.04 116.22 21.44 116.93 21.84 132.16 31.63 127.32 18.46 126.96 17.6 126.66 16.85 126.36 16.19 126.11 15.64 125.85 15.13 125.65 14.78 125.45 14.48 125.3 14.23 125 13.77 124.64 13.37 124.29 13.17 123.99 13.02 123.63 12.91 123.33 12.86 122.98 12.81 122.63 12.81 122.22 12.86 121.87 12.96 121.47 13.06 121.01 13.27 120.56 12.21 139.42 4.89 139.72 6.1 138.77 6.81 138.41 7.06 138.06 7.26 137.66 7.47 137.35 7.67 137.05 7.82 136.8 8.02 136.6 8.17 136.5 8.37 136.4 8.63 136.29 8.93 136.19 9.23 136.09 9.53 135.99 9.79 135.94 10.04 135.89 10.29 135.89 10.44 135.89 10.75 135.94 11.2 136.09 11.7 136.25 12.26 136.45 12.91 136.65 13.62 136.95 14.38 137.25 15.13 148.7 43.84 149.01 44.59 149.31 45.3 149.61 45.95 149.86 46.51 150.12 46.96 150.37 47.37 150.57 47.72 150.72 47.92 150.92 48.17 151.08 48.43 151.28 48.63 151.48 48.83 151.68 49.03 151.88 49.18 152.08 49.28 152.28 49.33 152.54 49.38 152.89 49.38 153.19 49.38 153.6 49.38 154 49.38 154.45 49.33 154.91 49.23 155.36 49.13 156.57 48.73 156.82 49.69 137.3 57.25 136.85 56.24 137.3 56.04 137.76 55.84 138.16 55.59 138.51 55.34 138.82 55.08 139.07 54.88 139.27 54.68 139.37 54.58 139.47 54.43 139.62 54.18 139.68 53.87 139.78 53.57 139.83 53.27 139.83 53.02 139.88 52.81 139.88 52.76 139.83 52.21 139.78 51.7 139.72 51.1 139.62 50.54 139.52 49.99 139.37 49.43 139.22 48.88 139.02 48.32 134.28 35.76 131.81 34.86 128.63 50.59 128.48 51.65 128.33 52.66 128.28 53.62 128.17 54.53 128.12 55.34 128.07 55.99 128.07 56.5 128.07 56.85 128.17 57 128.48 57.35 128.78 57.76 129.03 57.91 129.23 57.96 129.48 58.01 129.79 58.11 130.14 58.21 130.49 58.31 130.9 58.36 131.35 58.41 131.81 58.36 132.21 59.37 113.69 66.57 115.66 71.43 160.51 53.87 138.57 0"/>
    </g>
  </g>
</svg>
