<?xml version="1.0" encoding="UTF-8"?>
<svg id="Camada_2" data-name="Camada 2" xmlns="http://www.w3.org/2000/svg" viewBox="0 0 66.84 71.43">
  <defs>
    <style>
      .cls-1 {
        fill: #d73347;
        fill-rule: evenodd;
      }
    </style>
  </defs>
  <g id="Marca_MAK" data-name="Marca MAK">
    <polygon class="cls-1" points="44.89 0 0 17.45 19.56 65.46 19.82 65.32 20.23 65.07 20.63 64.82 21.03 64.52 21.34 64.21 21.54 63.91 21.64 63.61 29.06 28.8 17.76 22.04 17.05 21.69 16.14 21.39 15.23 21.14 14.27 20.93 13.37 20.78 12.51 20.63 11.85 20.58 11.35 20.53 11.1 20.53 10.74 20.53 10.39 20.53 9.99 20.53 9.53 20.58 9.03 20.68 8.53 20.78 7.97 20.88 7.57 19.88 21.54 14.48 21.84 15.39 21.29 15.64 20.78 15.89 20.33 16.09 19.97 16.29 19.62 16.5 19.37 16.65 19.22 16.8 19.12 16.9 18.92 17.25 18.81 17.6 18.71 17.96 18.66 18.36 18.66 18.66 18.66 18.97 18.66 19.22 18.66 19.37 18.77 19.62 19.12 19.88 19.62 20.13 20.28 20.43 20.98 20.73 21.74 21.04 22.55 21.44 23.25 21.84 38.49 31.63 33.65 18.46 33.29 17.6 32.99 16.85 32.69 16.19 32.43 15.64 32.18 15.13 31.98 14.78 31.78 14.48 31.63 14.23 31.32 13.77 30.97 13.37 30.62 13.17 30.32 13.02 29.96 12.91 29.66 12.86 29.31 12.81 28.95 12.81 28.55 12.86 28.2 12.96 27.79 13.06 27.34 13.27 26.89 12.21 45.75 4.89 46.05 6.1 45.09 6.81 44.74 7.06 44.39 7.26 43.99 7.47 43.68 7.67 43.38 7.82 43.13 8.02 42.93 8.17 42.83 8.37 42.72 8.63 42.62 8.93 42.52 9.23 42.42 9.53 42.32 9.79 42.27 10.04 42.22 10.29 42.22 10.44 42.22 10.75 42.27 11.2 42.42 11.7 42.57 12.26 42.78 12.91 42.98 13.62 43.28 14.38 43.58 15.13 55.03 43.84 55.34 44.59 55.64 45.3 55.94 45.95 56.19 46.51 56.44 46.96 56.7 47.37 56.9 47.72 57.05 47.92 57.25 48.17 57.4 48.43 57.61 48.63 57.81 48.83 58.01 49.03 58.21 49.18 58.41 49.28 58.61 49.33 58.87 49.38 59.22 49.38 59.52 49.38 59.93 49.38 60.33 49.38 60.78 49.33 61.24 49.23 61.69 49.13 62.9 48.73 63.15 49.69 43.63 57.25 43.18 56.24 43.63 56.04 44.09 55.84 44.49 55.59 44.84 55.34 45.15 55.08 45.4 54.88 45.6 54.68 45.7 54.58 45.8 54.43 45.95 54.18 46 53.87 46.1 53.57 46.15 53.27 46.15 53.02 46.21 52.81 46.21 52.76 46.15 52.21 46.1 51.7 46.05 51.1 45.95 50.54 45.85 49.99 45.7 49.43 45.55 48.88 45.35 48.32 40.61 35.76 38.14 34.86 34.96 50.59 34.8 51.65 34.65 52.66 34.61 53.62 34.5 54.53 34.45 55.34 34.4 55.99 34.4 56.5 34.4 56.85 34.5 57 34.8 57.35 35.11 57.76 35.36 57.91 35.56 57.96 35.81 58.01 36.12 58.11 36.47 58.21 36.82 58.31 37.23 58.36 37.68 58.41 38.14 58.36 38.54 59.37 20.02 66.57 21.99 71.43 66.84 53.87 44.89 0"/>
  </g>
</svg>
